<svg width="667" height="465" viewBox="0 0 667 465" fill="none" xmlns="http://www.w3.org/2000/svg">
<g clip-path="url(#clip0_36_2)">
<rect width="667" height="465" fill="white"/>
<rect y="35" width="212" height="395" fill="#E4E4E4"/>
<rect x="453" width="215" height="465" fill="#E4E4E4"/>
<rect x="272.5" y="-21.5" width="91" height="536" stroke="#AFAFAF" stroke-width="3" stroke-dasharray="2 2"/>
<path d="M352.5 215.5H369C373.142 215.5 376.5 218.858 376.5 223V242C376.5 246.142 373.142 249.5 369 249.5H352.5V215.5Z" fill="white" fill-opacity="0.5"/>
<path d="M352.5 215.5H369C373.142 215.5 376.5 218.858 376.5 223V242C376.5 246.142 373.142 249.5 369 249.5H352.5V215.5Z" stroke="black"/>
<path d="M371.686 235.099C371.156 235.099 370.683 235.008 370.269 234.826C369.857 234.641 369.532 234.388 369.292 234.066C369.056 233.742 368.934 233.368 368.927 232.944H370.475C370.484 233.121 370.542 233.278 370.649 233.413C370.758 233.545 370.902 233.648 371.082 233.722C371.262 233.795 371.465 233.832 371.689 233.832C371.924 233.832 372.131 233.79 372.311 233.707C372.491 233.625 372.632 233.51 372.733 233.363C372.835 233.216 372.886 233.047 372.886 232.855C372.886 232.661 372.832 232.489 372.723 232.34C372.616 232.189 372.462 232.07 372.261 231.985C372.062 231.9 371.826 231.857 371.551 231.857H370.873V230.728H371.551C371.783 230.728 371.988 230.688 372.165 230.607C372.345 230.527 372.485 230.415 372.584 230.273C372.684 230.129 372.733 229.961 372.733 229.769C372.733 229.587 372.69 229.427 372.602 229.29C372.517 229.15 372.396 229.041 372.24 228.963C372.086 228.885 371.906 228.846 371.7 228.846C371.492 228.846 371.301 228.884 371.128 228.96C370.956 229.033 370.817 229.138 370.713 229.276C370.609 229.413 370.553 229.574 370.546 229.759H369.072C369.079 229.339 369.199 228.97 369.431 228.651C369.663 228.331 369.975 228.081 370.368 227.901C370.764 227.719 371.21 227.628 371.707 227.628C372.209 227.628 372.648 227.719 373.025 227.901C373.401 228.084 373.693 228.33 373.902 228.64C374.113 228.948 374.217 229.293 374.214 229.677C374.217 230.084 374.09 230.424 373.834 230.696C373.581 230.968 373.251 231.141 372.844 231.214V231.271C373.379 231.34 373.786 231.526 374.065 231.829C374.347 232.129 374.487 232.506 374.484 232.958C374.487 233.372 374.367 233.741 374.126 234.062C373.886 234.384 373.556 234.638 373.135 234.822C372.713 235.007 372.23 235.099 371.686 235.099Z" fill="black"/>
<rect x="277.5" y="208.5" width="43" height="49" stroke="black"/>
<path d="M297.545 248.142C297.186 248.185 296.906 248.357 296.707 248.661C296.509 248.964 296.409 249.335 296.409 249.776C296.409 250.098 296.461 250.379 296.565 250.621C296.67 250.86 296.813 251.047 296.995 251.182C297.177 251.314 297.384 251.381 297.616 251.381C297.811 251.381 297.978 251.335 298.117 251.242C298.254 251.147 298.369 251.027 298.462 250.88C298.552 250.733 298.626 250.579 298.685 250.418C298.742 250.257 298.788 250.109 298.824 249.974L299.023 249.236C299.072 249.046 299.141 248.836 299.229 248.604C299.316 248.369 299.436 248.146 299.587 247.933C299.737 247.717 299.928 247.54 300.163 247.4C300.397 247.26 300.685 247.19 301.026 247.19C301.419 247.19 301.774 247.293 302.091 247.499C302.408 247.703 302.66 248.001 302.847 248.394C303.034 248.785 303.128 249.259 303.128 249.818C303.128 250.339 303.044 250.79 302.876 251.171C302.708 251.55 302.473 251.848 302.173 252.066C301.872 252.281 301.523 252.403 301.125 252.432V251.523C301.4 251.499 301.627 251.407 301.807 251.246C301.984 251.082 302.117 250.876 302.205 250.628C302.29 250.377 302.332 250.107 302.332 249.818C302.332 249.482 302.278 249.18 302.169 248.913C302.058 248.645 301.904 248.433 301.707 248.277C301.509 248.121 301.277 248.043 301.011 248.043C300.77 248.043 300.573 248.11 300.422 248.245C300.27 248.38 300.147 248.558 300.053 248.778C299.958 248.998 299.875 249.236 299.804 249.491L299.548 250.386C299.385 250.955 299.152 251.404 298.849 251.736C298.546 252.067 298.149 252.233 297.659 252.233C297.252 252.233 296.897 252.123 296.594 251.903C296.288 251.68 296.052 251.382 295.884 251.008C295.713 250.631 295.628 250.211 295.628 249.747C295.628 249.278 295.712 248.862 295.88 248.497C296.046 248.133 296.273 247.844 296.562 247.631C296.851 247.415 297.179 247.302 297.545 247.29V248.142ZM295.727 240.97V240.089H300.543C301.04 240.089 301.484 240.206 301.874 240.441C302.263 240.673 302.569 241 302.794 241.424C303.017 241.848 303.128 242.345 303.128 242.916C303.128 243.486 303.017 243.983 302.794 244.407C302.569 244.831 302.263 245.16 301.874 245.394C301.484 245.626 301.04 245.742 300.543 245.742H295.727V244.862H300.472C300.827 244.862 301.143 244.784 301.42 244.627C301.694 244.471 301.911 244.249 302.07 243.96C302.226 243.669 302.304 243.32 302.304 242.916C302.304 242.511 302.226 242.163 302.07 241.872C301.911 241.58 301.694 241.358 301.42 241.204C301.143 241.048 300.827 240.97 300.472 240.97H295.727ZM303 238.33H295.727V235.788C295.727 235.281 295.815 234.863 295.99 234.534C296.163 234.205 296.396 233.96 296.69 233.799C296.981 233.638 297.304 233.558 297.659 233.558C297.972 233.558 298.23 233.613 298.433 233.724C298.637 233.833 298.798 233.978 298.916 234.158C299.035 234.335 299.122 234.528 299.179 234.737H299.25C299.264 234.514 299.342 234.29 299.484 234.065C299.626 233.84 299.83 233.652 300.095 233.501C300.36 233.349 300.685 233.273 301.068 233.273C301.433 233.273 301.761 233.356 302.052 233.522C302.343 233.688 302.574 233.949 302.744 234.307C302.915 234.664 303 235.129 303 235.702V238.33ZM302.219 237.45V235.702C302.219 235.127 302.107 234.719 301.885 234.477C301.66 234.233 301.388 234.112 301.068 234.112C300.822 234.112 300.595 234.174 300.386 234.3C300.176 234.425 300.008 234.604 299.882 234.836C299.754 235.068 299.69 235.343 299.69 235.66V237.45H302.219ZM298.923 237.45V235.816C298.923 235.551 298.871 235.312 298.767 235.099C298.663 234.883 298.516 234.713 298.327 234.587C298.137 234.46 297.915 234.396 297.659 234.396C297.339 234.396 297.068 234.507 296.846 234.729C296.621 234.952 296.509 235.305 296.509 235.788V237.45H298.923ZM303 228.914L296.565 225.662H296.509V229.412H295.727V224.752H296.551L303 227.991V228.914ZM303.099 221.213C303.099 221.748 302.954 222.204 302.663 222.58C302.369 222.956 301.944 223.244 301.388 223.443C300.829 223.642 300.154 223.741 299.364 223.741C298.578 223.741 297.906 223.642 297.35 223.443C296.791 223.242 296.365 222.953 296.072 222.577C295.776 222.198 295.628 221.743 295.628 221.213C295.628 220.683 295.776 220.229 296.072 219.853C296.365 219.474 296.791 219.185 297.35 218.986C297.906 218.785 298.578 218.684 299.364 218.684C300.154 218.684 300.829 218.784 301.388 218.983C301.944 219.182 302.369 219.469 302.663 219.846C302.954 220.222 303.099 220.678 303.099 221.213ZM302.318 221.213C302.318 220.683 302.062 220.271 301.551 219.977C301.04 219.684 300.311 219.537 299.364 219.537C298.734 219.537 298.198 219.604 297.755 219.739C297.312 219.872 296.975 220.064 296.743 220.314C296.511 220.563 296.395 220.863 296.395 221.213C296.395 221.738 296.654 222.149 297.173 222.445C297.689 222.741 298.419 222.889 299.364 222.889C299.993 222.889 300.528 222.823 300.969 222.69C301.409 222.558 301.744 222.367 301.974 222.118C302.203 221.867 302.318 221.566 302.318 221.213ZM303 217.335H302.361L299.733 214.934C299.425 214.653 299.158 214.421 298.93 214.238C298.701 214.056 298.485 213.921 298.284 213.834C298.08 213.744 297.867 213.699 297.645 213.699C297.389 213.699 297.168 213.76 296.981 213.883C296.794 214.004 296.649 214.17 296.548 214.381C296.446 214.591 296.395 214.828 296.395 215.091C296.395 215.37 296.453 215.614 296.569 215.822C296.683 216.028 296.842 216.188 297.048 216.302C297.254 216.413 297.496 216.469 297.773 216.469V217.307C297.347 217.307 296.973 217.208 296.651 217.012C296.329 216.815 296.078 216.548 295.898 216.209C295.718 215.868 295.628 215.486 295.628 215.062C295.628 214.636 295.718 214.259 295.898 213.93C296.078 213.6 296.32 213.342 296.626 213.155C296.931 212.968 297.271 212.875 297.645 212.875C297.912 212.875 298.174 212.923 298.43 213.02C298.683 213.115 298.966 213.281 299.278 213.518C299.589 213.752 299.967 214.077 300.415 214.494L302.162 216.128H302.219V212.747H303V217.335Z" fill="black"/>
<path d="M312.702 227.722V226.511L315.738 221.727H316.782V223.403H316.164L314.25 226.433V226.489H318.565V227.722H312.702ZM316.193 229V227.352L316.221 226.816V221.727H317.663V229H316.193ZM315.8 241.099C315.299 241.099 314.851 241.007 314.458 240.822C314.067 240.638 313.757 240.383 313.528 240.059C313.298 239.735 313.179 239.363 313.169 238.944H314.661C314.677 239.226 314.795 239.454 315.016 239.629C315.236 239.804 315.497 239.892 315.8 239.892C316.042 239.892 316.255 239.839 316.44 239.732C316.627 239.623 316.772 239.473 316.876 239.281C316.983 239.087 317.036 238.865 317.036 238.614C317.036 238.358 316.982 238.133 316.873 237.939C316.766 237.745 316.618 237.593 316.429 237.484C316.24 237.375 316.023 237.32 315.779 237.317C315.566 237.317 315.359 237.361 315.158 237.449C314.959 237.536 314.804 237.656 314.692 237.808L313.325 237.562L313.67 233.727H318.116V234.984H314.938L314.749 236.806H314.792C314.92 236.626 315.113 236.477 315.371 236.359C315.629 236.24 315.918 236.181 316.237 236.181C316.675 236.181 317.066 236.284 317.409 236.49C317.752 236.696 318.023 236.979 318.222 237.339C318.421 237.696 318.519 238.108 318.517 238.575C318.519 239.065 318.406 239.5 318.176 239.881C317.949 240.26 317.63 240.558 317.221 240.776C316.814 240.992 316.34 241.099 315.8 241.099Z" fill="black"/>
<path d="M390 244.668V246.912H382.727V244.569C382.727 243.863 382.873 243.259 383.164 242.757C383.453 242.256 383.868 241.871 384.411 241.603C384.95 241.336 385.597 241.202 386.349 241.202C387.107 241.202 387.759 241.337 388.306 241.607C388.851 241.877 389.27 242.27 389.563 242.786C389.854 243.302 390 243.929 390 244.668ZM389.219 246.032V244.725C389.219 244.123 389.103 243.625 388.871 243.23C388.639 242.834 388.308 242.54 387.88 242.346C387.451 242.151 386.941 242.054 386.349 242.054C385.762 242.054 385.257 242.15 384.833 242.342C384.407 242.534 384.08 242.82 383.853 243.201C383.623 243.583 383.509 244.057 383.509 244.625V246.032H389.219ZM382.727 239.416L385.753 237.541V237.484L382.727 235.609V234.572L386.364 236.859L390 234.572V235.609L387.031 237.484V237.541L390 239.416V240.453L386.364 238.109L382.727 240.453V239.416ZM390 233.426H382.727V230.969C382.727 230.4 382.824 229.934 383.018 229.569C383.21 229.205 383.474 228.935 383.81 228.76C384.147 228.585 384.529 228.497 384.957 228.497C385.386 228.497 385.766 228.585 386.097 228.76C386.429 228.935 386.689 229.204 386.879 229.566C387.066 229.928 387.159 230.391 387.159 230.954V232.943H386.364V230.983C386.364 230.595 386.307 230.282 386.193 230.045C386.08 229.806 385.919 229.633 385.71 229.527C385.5 229.418 385.249 229.363 384.957 229.363C384.666 229.363 384.412 229.418 384.194 229.527C383.976 229.636 383.808 229.81 383.69 230.049C383.569 230.288 383.509 230.604 383.509 230.997V232.545H390V233.426ZM386.733 230.003L390 228.213V229.236L386.733 230.997V230.003ZM382.727 224.6H390V225.481H383.651V225.524L384.83 227.299H383.935L382.727 225.481V224.6ZM390 222.509H389.361L386.733 220.108C386.425 219.827 386.158 219.595 385.93 219.412C385.701 219.23 385.485 219.095 385.284 219.007C385.08 218.917 384.867 218.873 384.645 218.873C384.389 218.873 384.168 218.934 383.981 219.057C383.794 219.178 383.649 219.344 383.548 219.554C383.446 219.765 383.395 220.002 383.395 220.265C383.395 220.544 383.453 220.788 383.569 220.996C383.683 221.202 383.842 221.362 384.048 221.475C384.254 221.587 384.496 221.642 384.773 221.642V222.48C384.347 222.48 383.973 222.382 383.651 222.186C383.329 221.989 383.078 221.722 382.898 221.383C382.718 221.042 382.628 220.66 382.628 220.236C382.628 219.81 382.718 219.432 382.898 219.103C383.078 218.774 383.32 218.516 383.626 218.329C383.931 218.142 384.271 218.049 384.645 218.049C384.912 218.049 385.174 218.097 385.43 218.194C385.683 218.289 385.966 218.455 386.278 218.691C386.589 218.926 386.967 219.251 387.415 219.668L389.162 221.301H389.219V217.921H390V222.509Z" fill="black"/>
<path d="M396.332 29H394.088V21.7273H396.431C397.137 21.7273 397.741 21.8729 398.243 22.1641C398.744 22.4529 399.129 22.8684 399.397 23.4105C399.664 23.9503 399.798 24.5966 399.798 25.3494C399.798 26.107 399.663 26.7592 399.393 27.3061C399.123 27.8506 398.73 28.2696 398.214 28.5632C397.698 28.8544 397.071 29 396.332 29ZM394.968 28.2188H396.275C396.877 28.2188 397.375 28.1027 397.77 27.8707C398.166 27.6387 398.46 27.3085 398.654 26.88C398.849 26.4515 398.946 25.9413 398.946 25.3494C398.946 24.7623 398.85 24.2569 398.658 23.8331C398.466 23.407 398.18 23.0803 397.799 22.853C397.417 22.6233 396.943 22.5085 396.375 22.5085H394.968V28.2188ZM401.584 21.7273L403.459 24.7528H403.516L405.391 21.7273H406.428L404.141 25.3636L406.428 29H405.391L403.516 26.0312H403.459L401.584 29H400.547L402.891 25.3636L400.547 21.7273H401.584ZM407.574 29V21.7273H410.031C410.6 21.7273 411.066 21.8243 411.431 22.0185C411.795 22.2102 412.065 22.4742 412.24 22.8104C412.415 23.1465 412.503 23.5289 412.503 23.9574C412.503 24.3859 412.415 24.7659 412.24 25.0973C412.065 25.4287 411.796 25.6892 411.434 25.8786C411.072 26.0656 410.609 26.1591 410.046 26.1591H408.057V25.3636H410.017C410.405 25.3636 410.718 25.3068 410.955 25.1932C411.194 25.0795 411.367 24.9186 411.473 24.7102C411.582 24.4995 411.637 24.2486 411.637 23.9574C411.637 23.6662 411.582 23.4117 411.473 23.1939C411.364 22.9761 411.19 22.808 410.951 22.6896C410.712 22.5689 410.396 22.5085 410.003 22.5085H408.455V29H407.574ZM410.997 25.733L412.787 29H411.764L410.003 25.733H410.997ZM416.4 21.7273V29H415.519V22.6506H415.476L413.701 23.8295V22.9347L415.519 21.7273H416.4ZM418.491 29V28.3608L420.892 25.733C421.173 25.4252 421.405 25.1577 421.588 24.9304C421.77 24.7008 421.905 24.4853 421.993 24.2841C422.083 24.0805 422.127 23.8674 422.127 23.6449C422.127 23.3892 422.066 23.1679 421.943 22.9808C421.822 22.7938 421.656 22.6494 421.446 22.5476C421.235 22.4458 420.998 22.3949 420.735 22.3949C420.456 22.3949 420.212 22.4529 420.004 22.5689C419.798 22.6825 419.638 22.8423 419.525 23.0483C419.413 23.2543 419.358 23.4957 419.358 23.7727H418.52C418.52 23.3466 418.618 22.9725 418.814 22.6506C419.011 22.3286 419.278 22.0777 419.617 21.8977C419.958 21.7178 420.34 21.6278 420.764 21.6278C421.19 21.6278 421.568 21.7178 421.897 21.8977C422.226 22.0777 422.484 22.3203 422.671 22.6257C422.858 22.9311 422.951 23.2708 422.951 23.6449C422.951 23.9124 422.903 24.174 422.806 24.4297C422.711 24.683 422.545 24.9659 422.309 25.2784C422.074 25.5885 421.749 25.9673 421.332 26.4148L419.699 28.1619V28.2188H423.079V29H418.491Z" fill="black"/>
<path d="M396.332 443H394.088V435.727H396.431C397.137 435.727 397.741 435.873 398.243 436.164C398.744 436.453 399.129 436.868 399.397 437.411C399.664 437.95 399.798 438.597 399.798 439.349C399.798 440.107 399.663 440.759 399.393 441.306C399.123 441.851 398.73 442.27 398.214 442.563C397.698 442.854 397.071 443 396.332 443ZM394.968 442.219H396.275C396.877 442.219 397.375 442.103 397.77 441.871C398.166 441.639 398.46 441.308 398.654 440.88C398.849 440.451 398.946 439.941 398.946 439.349C398.946 438.762 398.85 438.257 398.658 437.833C398.466 437.407 398.18 437.08 397.799 436.853C397.417 436.623 396.943 436.509 396.375 436.509H394.968V442.219ZM401.584 435.727L403.459 438.753H403.516L405.391 435.727H406.428L404.141 439.364L406.428 443H405.391L403.516 440.031H403.459L401.584 443H400.547L402.891 439.364L400.547 435.727H401.584ZM407.574 443V435.727H410.031C410.6 435.727 411.066 435.824 411.431 436.018C411.795 436.21 412.065 436.474 412.24 436.81C412.415 437.147 412.503 437.529 412.503 437.957C412.503 438.386 412.415 438.766 412.24 439.097C412.065 439.429 411.796 439.689 411.434 439.879C411.072 440.066 410.609 440.159 410.046 440.159H408.057V439.364H410.017C410.405 439.364 410.718 439.307 410.955 439.193C411.194 439.08 411.367 438.919 411.473 438.71C411.582 438.5 411.637 438.249 411.637 437.957C411.637 437.666 411.582 437.412 411.473 437.194C411.364 436.976 411.19 436.808 410.951 436.69C410.712 436.569 410.396 436.509 410.003 436.509H408.455V443H407.574ZM410.997 439.733L412.787 443H411.764L410.003 439.733H410.997ZM416.4 435.727V443H415.519V436.651H415.476L413.701 437.83V436.935L415.519 435.727H416.4ZM418.491 443V442.361L420.892 439.733C421.173 439.425 421.405 439.158 421.588 438.93C421.77 438.701 421.905 438.485 421.993 438.284C422.083 438.08 422.127 437.867 422.127 437.645C422.127 437.389 422.066 437.168 421.943 436.981C421.822 436.794 421.656 436.649 421.446 436.548C421.235 436.446 420.998 436.395 420.735 436.395C420.456 436.395 420.212 436.453 420.004 436.569C419.798 436.683 419.638 436.842 419.525 437.048C419.413 437.254 419.358 437.496 419.358 437.773H418.52C418.52 437.347 418.618 436.973 418.814 436.651C419.011 436.329 419.278 436.078 419.617 435.898C419.958 435.718 420.34 435.628 420.764 435.628C421.19 435.628 421.568 435.718 421.897 435.898C422.226 436.078 422.484 436.32 422.671 436.626C422.858 436.931 422.951 437.271 422.951 437.645C422.951 437.912 422.903 438.174 422.806 438.43C422.711 438.683 422.545 438.966 422.309 439.278C422.074 439.589 421.749 439.967 421.332 440.415L419.699 442.162V442.219H423.079V443H418.491Z" fill="black"/>
<rect x="303.5" y="75.5" width="49" height="80" stroke="black"/>
<path d="M331.5 131.375V133.619H324.227V131.276C324.227 130.57 324.373 129.966 324.664 129.464C324.953 128.963 325.368 128.578 325.911 128.31C326.45 128.043 327.097 127.909 327.849 127.909C328.607 127.909 329.259 128.044 329.806 128.314C330.351 128.584 330.77 128.977 331.063 129.493C331.354 130.009 331.5 130.636 331.5 131.375ZM330.719 132.739V131.432C330.719 130.83 330.603 130.332 330.371 129.937C330.139 129.541 329.808 129.247 329.38 129.053C328.951 128.858 328.441 128.761 327.849 128.761C327.262 128.761 326.757 128.857 326.333 129.049C325.907 129.241 325.58 129.527 325.353 129.908C325.123 130.29 325.009 130.764 325.009 131.332V132.739H330.719ZM324.227 126.123L327.253 124.248V124.191L324.227 122.316V121.279L327.864 123.566L331.5 121.279V122.316L328.531 124.191V124.248L331.5 126.123V127.16L327.864 124.816L324.227 127.16V126.123ZM324.227 117.704H331.5V118.585H325.151V118.627L326.33 120.403H325.435L324.227 118.585V117.704ZM331.599 113.34C331.599 113.756 331.517 114.132 331.351 114.465C331.185 114.799 330.958 115.067 330.669 115.268C330.38 115.469 330.051 115.579 329.682 115.598V114.746C330.011 114.713 330.283 114.564 330.499 114.298C330.712 114.031 330.818 113.711 330.818 113.34C330.818 113.041 330.748 112.776 330.609 112.544C330.469 112.31 330.277 112.126 330.033 111.994C329.787 111.859 329.509 111.791 329.199 111.791C328.882 111.791 328.599 111.861 328.35 112.001C328.099 112.138 327.902 112.328 327.757 112.569C327.613 112.811 327.539 113.086 327.537 113.396C327.535 113.619 327.569 113.847 327.64 114.082C327.709 114.316 327.797 114.509 327.906 114.661L327.807 115.485L324.227 115.044V111.266H325.009V114.306L327.153 114.561V114.519C327.035 114.369 326.937 114.182 326.859 113.958C326.781 113.733 326.741 113.498 326.741 113.254C326.741 112.809 326.848 112.413 327.061 112.065C327.272 111.714 327.561 111.44 327.928 111.241C328.295 111.04 328.714 110.939 329.185 110.939C329.649 110.939 330.063 111.043 330.428 111.252C330.79 111.458 331.076 111.742 331.287 112.104C331.495 112.466 331.599 112.878 331.599 113.34ZM331.5 109.528H330.861L328.233 107.128C327.925 106.846 327.658 106.614 327.43 106.432C327.201 106.25 326.985 106.115 326.784 106.027C326.58 105.937 326.367 105.892 326.145 105.892C325.889 105.892 325.668 105.954 325.481 106.077C325.294 106.197 325.149 106.363 325.048 106.574C324.946 106.785 324.895 107.021 324.895 107.284C324.895 107.563 324.953 107.807 325.069 108.016C325.183 108.222 325.342 108.381 325.548 108.495C325.754 108.606 325.996 108.662 326.273 108.662V109.5C325.847 109.5 325.473 109.402 325.151 109.205C324.829 109.009 324.578 108.741 324.398 108.403C324.218 108.062 324.128 107.679 324.128 107.256C324.128 106.83 324.218 106.452 324.398 106.123C324.578 105.794 324.82 105.536 325.126 105.349C325.431 105.162 325.771 105.068 326.145 105.068C326.412 105.068 326.674 105.117 326.93 105.214C327.183 105.308 327.466 105.474 327.778 105.711C328.089 105.945 328.467 106.271 328.915 106.688L330.662 108.321H330.719V104.94H331.5V109.528ZM331.599 101.059C331.595 101.357 331.538 101.656 331.429 101.954C331.32 102.252 331.137 102.524 330.879 102.771C330.618 103.017 330.267 103.214 329.824 103.364C329.379 103.513 328.82 103.587 328.148 103.587C327.504 103.587 326.933 103.527 326.436 103.406C325.937 103.286 325.516 103.11 325.175 102.881C324.832 102.651 324.572 102.374 324.394 102.05C324.217 101.723 324.128 101.355 324.128 100.945C324.128 100.538 324.21 100.176 324.373 99.8587C324.534 99.5391 324.759 99.2786 325.048 99.0774C325.336 98.8762 325.669 98.746 326.045 98.6868V99.5533C325.719 99.6338 325.448 99.79 325.232 100.022C325.017 100.254 324.909 100.562 324.909 100.945C324.909 101.509 325.154 101.953 325.644 102.277C326.134 102.599 326.822 102.761 327.707 102.763V102.707C327.506 102.574 327.335 102.417 327.192 102.234C327.048 102.05 326.937 101.846 326.859 101.624C326.781 101.401 326.741 101.165 326.741 100.917C326.741 100.5 326.846 100.119 327.054 99.7734C327.26 99.4278 327.545 99.1508 327.91 98.9425C328.272 98.7341 328.688 98.63 329.156 98.63C329.606 98.63 330.018 98.7306 330.392 98.9318C330.764 99.133 331.06 99.416 331.28 99.7805C331.498 100.143 331.604 100.569 331.599 101.059ZM330.818 101.059C330.818 100.761 330.744 100.493 330.594 100.256C330.445 100.017 330.245 99.8291 329.994 99.6918C329.743 99.5521 329.464 99.4822 329.156 99.4822C328.856 99.4822 328.582 99.5497 328.336 99.6847C328.087 99.8172 327.89 100.001 327.743 100.235C327.596 100.467 327.523 100.732 327.523 101.031C327.523 101.255 327.568 101.465 327.658 101.659C327.745 101.853 327.866 102.024 328.02 102.17C328.174 102.315 328.35 102.429 328.549 102.511C328.746 102.594 328.953 102.636 329.17 102.636C329.459 102.636 329.729 102.568 329.98 102.433C330.231 102.296 330.433 102.109 330.587 101.872C330.741 101.633 330.818 101.362 330.818 101.059Z" fill="black"/>
<path d="M349.861 77.7273V85H348.323V79.1868H348.281L346.615 80.2308V78.8672L348.416 77.7273H349.861Z" fill="black"/>
<rect x="303.5" y="310.5" width="49" height="80" stroke="black"/>
<path d="M331.5 365.875V368.119H324.227V365.776C324.227 365.07 324.373 364.466 324.664 363.964C324.953 363.463 325.368 363.078 325.911 362.81C326.45 362.543 327.097 362.409 327.849 362.409C328.607 362.409 329.259 362.544 329.806 362.814C330.351 363.084 330.77 363.477 331.063 363.993C331.354 364.509 331.5 365.136 331.5 365.875ZM330.719 367.239V365.932C330.719 365.33 330.603 364.832 330.371 364.437C330.139 364.041 329.808 363.747 329.38 363.553C328.951 363.358 328.441 363.261 327.849 363.261C327.262 363.261 326.757 363.357 326.333 363.549C325.907 363.741 325.58 364.027 325.353 364.408C325.123 364.79 325.009 365.264 325.009 365.832V367.239H330.719ZM324.227 360.623L327.253 358.748V358.691L324.227 356.816V355.779L327.864 358.066L331.5 355.779V356.816L328.531 358.691V358.748L331.5 360.623V361.66L327.864 359.316L324.227 361.66V360.623ZM324.227 352.204H331.5V353.085H325.151V353.127L326.33 354.903H325.435L324.227 353.085V352.204ZM331.599 347.84C331.599 348.256 331.517 348.632 331.351 348.965C331.185 349.299 330.958 349.567 330.669 349.768C330.38 349.969 330.051 350.079 329.682 350.098V349.246C330.011 349.213 330.283 349.064 330.499 348.798C330.712 348.531 330.818 348.211 330.818 347.84C330.818 347.541 330.748 347.276 330.609 347.044C330.469 346.81 330.277 346.626 330.033 346.494C329.787 346.359 329.509 346.291 329.199 346.291C328.882 346.291 328.599 346.361 328.35 346.501C328.099 346.638 327.902 346.828 327.757 347.069C327.613 347.311 327.539 347.586 327.537 347.896C327.535 348.119 327.569 348.347 327.64 348.582C327.709 348.816 327.797 349.009 327.906 349.161L327.807 349.985L324.227 349.544V345.766H325.009V348.806L327.153 349.061V349.019C327.035 348.869 326.937 348.682 326.859 348.458C326.781 348.233 326.741 347.998 326.741 347.754C326.741 347.309 326.848 346.913 327.061 346.565C327.272 346.214 327.561 345.94 327.928 345.741C328.295 345.54 328.714 345.439 329.185 345.439C329.649 345.439 330.063 345.543 330.428 345.752C330.79 345.958 331.076 346.242 331.287 346.604C331.495 346.966 331.599 347.378 331.599 347.84ZM331.5 344.028H330.861L328.233 341.628C327.925 341.346 327.658 341.114 327.43 340.932C327.201 340.75 326.985 340.615 326.784 340.527C326.58 340.437 326.367 340.392 326.145 340.392C325.889 340.392 325.668 340.454 325.481 340.577C325.294 340.697 325.149 340.863 325.048 341.074C324.946 341.285 324.895 341.521 324.895 341.784C324.895 342.063 324.953 342.307 325.069 342.516C325.183 342.722 325.342 342.881 325.548 342.995C325.754 343.106 325.996 343.162 326.273 343.162V344C325.847 344 325.473 343.902 325.151 343.705C324.829 343.509 324.578 343.241 324.398 342.903C324.218 342.562 324.128 342.179 324.128 341.756C324.128 341.33 324.218 340.952 324.398 340.623C324.578 340.294 324.82 340.036 325.126 339.849C325.431 339.662 325.771 339.568 326.145 339.568C326.412 339.568 326.674 339.617 326.93 339.714C327.183 339.808 327.466 339.974 327.778 340.211C328.089 340.445 328.467 340.771 328.915 341.188L330.662 342.821H330.719V339.44H331.5V344.028ZM331.599 335.559C331.595 335.857 331.538 336.156 331.429 336.454C331.32 336.752 331.137 337.024 330.879 337.271C330.618 337.517 330.267 337.714 329.824 337.864C329.379 338.013 328.82 338.087 328.148 338.087C327.504 338.087 326.933 338.027 326.436 337.906C325.937 337.786 325.516 337.61 325.175 337.381C324.832 337.151 324.572 336.874 324.394 336.55C324.217 336.223 324.128 335.855 324.128 335.445C324.128 335.038 324.21 334.676 324.373 334.359C324.534 334.039 324.759 333.779 325.048 333.577C325.336 333.376 325.669 333.246 326.045 333.187V334.053C325.719 334.134 325.448 334.29 325.232 334.522C325.017 334.754 324.909 335.062 324.909 335.445C324.909 336.009 325.154 336.453 325.644 336.777C326.134 337.099 326.822 337.261 327.707 337.263V337.207C327.506 337.074 327.335 336.917 327.192 336.734C327.048 336.55 326.937 336.346 326.859 336.124C326.781 335.901 326.741 335.665 326.741 335.417C326.741 335 326.846 334.619 327.054 334.273C327.26 333.928 327.545 333.651 327.91 333.442C328.272 333.234 328.688 333.13 329.156 333.13C329.606 333.13 330.018 333.231 330.392 333.432C330.764 333.633 331.06 333.916 331.28 334.281C331.498 334.643 331.604 335.069 331.599 335.559ZM330.818 335.559C330.818 335.261 330.744 334.993 330.594 334.756C330.445 334.517 330.245 334.329 329.994 334.192C329.743 334.052 329.464 333.982 329.156 333.982C328.856 333.982 328.582 334.05 328.336 334.185C328.087 334.317 327.89 334.501 327.743 334.735C327.596 334.967 327.523 335.232 327.523 335.531C327.523 335.755 327.568 335.965 327.658 336.159C327.745 336.353 327.866 336.524 328.02 336.67C328.174 336.815 328.35 336.929 328.549 337.011C328.746 337.094 328.953 337.136 329.17 337.136C329.459 337.136 329.729 337.068 329.98 336.933C330.231 336.796 330.433 336.609 330.587 336.372C330.741 336.133 330.818 335.862 330.818 335.559Z" fill="black"/>
<path d="M345.291 320V318.892L347.879 316.495C348.1 316.282 348.284 316.09 348.433 315.92C348.585 315.749 348.7 315.582 348.778 315.419C348.856 315.253 348.895 315.075 348.895 314.883C348.895 314.67 348.847 314.486 348.749 314.332C348.652 314.176 348.52 314.057 348.352 313.974C348.184 313.888 347.993 313.846 347.78 313.846C347.557 313.846 347.363 313.891 347.198 313.981C347.032 314.071 346.904 314.2 346.814 314.368C346.724 314.536 346.679 314.736 346.679 314.968H345.22C345.22 314.492 345.327 314.079 345.543 313.729C345.758 313.378 346.06 313.107 346.448 312.915C346.837 312.724 347.284 312.628 347.791 312.628C348.311 312.628 348.765 312.72 349.151 312.905C349.539 313.087 349.841 313.34 350.056 313.665C350.272 313.989 350.379 314.361 350.379 314.78C350.379 315.054 350.325 315.326 350.216 315.593C350.11 315.861 349.919 316.158 349.644 316.484C349.37 316.809 348.983 317.198 348.483 317.653L347.421 318.693V318.743H350.475V320H345.291Z" fill="black"/>
<path d="M347.145 240.2C347.022 240.089 346.901 239.974 346.782 239.855C343.073 236.145 343.073 230.13 346.782 226.42C346.901 226.302 347.022 226.187 347.145 226.076L347.853 226.784C347.73 226.894 347.608 227.009 347.49 227.127C344.17 230.447 344.17 235.829 347.49 239.148C347.608 239.267 347.73 239.381 347.853 239.491L347.145 240.2Z" fill="black"/>
<path d="M343.606 243.738C343.485 243.625 343.365 243.509 343.247 243.391C337.584 237.728 337.584 228.547 343.247 222.885C343.365 222.766 343.485 222.65 343.606 222.537L344.314 223.245C344.192 223.358 344.072 223.473 343.954 223.592C338.682 228.864 338.682 237.412 343.954 242.684C344.072 242.802 344.192 242.918 344.314 243.031L343.606 243.738Z" fill="black"/>
<path d="M340.069 247.275C339.949 247.161 339.83 247.044 339.711 246.926C332.096 239.311 332.096 226.964 339.711 219.349C339.83 219.231 339.949 219.115 340.069 219L340.777 219.707C340.656 219.822 340.537 219.938 340.419 220.056C333.194 227.281 333.194 238.994 340.419 246.219C340.537 246.337 340.656 246.454 340.777 246.568L340.069 247.275Z" fill="black"/>
<path d="M298.145 123.2C298.022 123.089 297.901 122.974 297.782 122.855C294.073 119.145 294.073 113.13 297.782 109.42C297.901 109.302 298.022 109.187 298.145 109.076L298.853 109.784C298.73 109.894 298.608 110.009 298.49 110.127C295.17 113.447 295.17 118.829 298.49 122.148C298.608 122.267 298.73 122.381 298.853 122.491L298.145 123.2Z" fill="black"/>
<path d="M294.606 126.738C294.485 126.625 294.365 126.509 294.247 126.391C288.584 120.728 288.584 111.547 294.247 105.885C294.365 105.766 294.485 105.65 294.606 105.537L295.314 106.245C295.192 106.358 295.072 106.473 294.954 106.592C289.682 111.864 289.682 120.412 294.954 125.684C295.072 125.802 295.192 125.918 295.314 126.031L294.606 126.738Z" fill="black"/>
<path d="M291.069 130.275C290.949 130.161 290.83 130.044 290.711 129.926C283.096 122.311 283.096 109.964 290.711 102.349C290.83 102.231 290.949 102.115 291.069 102L291.777 102.707C291.656 102.822 291.537 102.938 291.419 103.056C284.194 110.281 284.194 121.994 291.419 129.219C291.537 129.337 291.656 129.454 291.777 129.568L291.069 130.275Z" fill="black"/>
<path d="M408.7 33.0983L423.379 40.6337L407.851 70.881L393.172 63.3456C389.487 61.4539 388.034 56.9332 389.925 53.2482L398.602 36.3453C400.494 32.6604 405.015 31.2067 408.7 33.0983Z" stroke="black"/>
<path d="M392.93 60L395.945 54.0341L395.945 53.9844L392.433 53.9844L392.433 52.7273L397.536 52.7273L397.536 54.0021L394.517 60L392.93 60Z" fill="black"/>
<path d="M408.7 431.06L423.379 423.525L407.851 393.278L393.172 400.813C389.487 402.705 388.034 407.226 389.925 410.91L398.602 427.813C400.494 431.498 405.015 432.952 408.7 431.06Z" stroke="black"/>
<path d="M394.779 411.099C394.405 411.097 394.044 411.034 393.696 410.911C393.35 410.788 393.04 410.588 392.766 410.311C392.491 410.034 392.273 409.667 392.112 409.21C391.954 408.753 391.874 408.192 391.874 407.527C391.877 406.916 391.946 406.371 392.084 405.89C392.223 405.407 392.422 404.997 392.68 404.661C392.941 404.325 393.252 404.069 393.614 403.894C393.977 403.717 394.383 403.628 394.832 403.628C395.318 403.628 395.746 403.723 396.118 403.912C396.49 404.099 396.788 404.353 397.013 404.675C397.24 404.997 397.377 405.358 397.425 405.759L395.908 405.759C395.849 405.505 395.725 405.306 395.536 405.162C395.346 405.018 395.112 404.945 394.832 404.945C394.359 404.945 393.999 405.151 393.753 405.563C393.509 405.975 393.385 406.535 393.38 407.243L393.43 407.243C393.539 407.027 393.685 406.844 393.87 406.692C394.057 406.539 394.269 406.421 394.506 406.341C394.745 406.258 394.997 406.217 395.262 406.217C395.693 406.217 396.076 406.318 396.413 406.522C396.749 406.723 397.014 407 397.208 407.353C397.402 407.706 397.499 408.109 397.499 408.564C397.499 409.056 397.384 409.494 397.155 409.878C396.928 410.261 396.609 410.562 396.2 410.78C395.792 410.995 395.319 411.102 394.779 411.099ZM394.772 409.892C395.009 409.892 395.221 409.835 395.408 409.722C395.595 409.608 395.741 409.454 395.848 409.26C395.955 409.066 396.008 408.848 396.008 408.607C396.008 408.365 395.955 408.148 395.848 407.957C395.744 407.765 395.599 407.612 395.415 407.499C395.23 407.385 395.019 407.328 394.783 407.328C394.605 407.328 394.441 407.361 394.289 407.428C394.14 407.494 394.009 407.586 393.895 407.705C393.784 407.823 393.696 407.96 393.632 408.116C393.568 408.27 393.536 408.435 393.536 408.61C393.536 408.844 393.589 409.059 393.696 409.253C393.805 409.447 393.952 409.602 394.136 409.718C394.323 409.834 394.535 409.892 394.772 409.892Z" fill="black"/>
<path d="M425.312 52.6182C425.371 52.7732 425.426 52.9306 425.477 53.0902C427.083 58.085 424.336 63.4362 419.341 65.0424C419.182 65.0937 419.022 65.1406 418.861 65.1831L418.555 64.2297C418.715 64.1882 418.876 64.1418 419.035 64.0904C423.504 62.6533 425.962 57.8654 424.525 53.3964C424.474 53.2366 424.418 53.0794 424.358 52.9248L425.312 52.6182Z" fill="black"/>
<path d="M430.076 51.0862C430.132 51.2425 430.186 51.4003 430.237 51.5596C432.689 59.1832 428.496 67.3508 420.872 69.8023C420.713 69.8536 420.553 69.9019 420.394 69.9473L420.087 68.9947C420.247 68.9497 420.407 68.9016 420.566 68.8503C427.664 66.5679 431.568 58.9636 429.285 51.8657C429.234 51.7064 429.18 51.5486 429.123 51.3925L430.076 51.0862Z" fill="black"/>
<path d="M434.838 49.5549C434.893 49.7118 434.946 49.8698 434.997 50.0289C438.294 60.2814 432.655 71.2654 422.403 74.5623C422.244 74.6134 422.084 74.6625 421.925 74.7094L421.619 73.757C421.778 73.7104 421.937 73.6615 422.097 73.6103C431.823 70.4825 437.173 60.0618 434.045 50.3351C433.994 50.1759 433.941 50.0179 433.886 49.8611L434.838 49.5549Z" fill="black"/>
<path d="M422.312 411.863C422.371 411.708 422.426 411.551 422.477 411.391C424.083 406.396 421.336 401.045 416.341 399.439C416.182 399.387 416.022 399.341 415.861 399.298L415.555 400.252C415.715 400.293 415.876 400.339 416.035 400.391C420.504 401.828 422.962 406.616 421.525 411.085C421.474 411.245 421.418 411.402 421.358 411.556L422.312 411.863Z" fill="black"/>
<path d="M427.076 413.395C427.132 413.239 427.186 413.081 427.237 412.922C429.689 405.298 425.496 397.13 417.872 394.679C417.713 394.628 417.553 394.579 417.394 394.534L417.087 395.486C417.247 395.531 417.407 395.58 417.566 395.631C424.664 397.913 428.568 405.518 426.285 412.615C426.234 412.775 426.18 412.933 426.123 413.089L427.076 413.395Z" fill="black"/>
<path d="M431.838 414.926C431.893 414.769 431.946 414.611 431.997 414.452C435.294 404.2 429.655 393.216 419.403 389.919C419.244 389.868 419.084 389.819 418.925 389.772L418.619 390.724C418.778 390.771 418.937 390.82 419.097 390.871C428.823 393.999 434.173 404.419 431.045 414.146C430.994 414.305 430.941 414.463 430.886 414.62L431.838 414.926Z" fill="black"/>
<path d="M298.145 358.2C298.022 358.089 297.901 357.974 297.782 357.855C294.073 354.145 294.073 348.13 297.782 344.42C297.901 344.302 298.022 344.187 298.145 344.076L298.853 344.784C298.73 344.894 298.608 345.009 298.49 345.127C295.17 348.447 295.17 353.829 298.49 357.148C298.608 357.267 298.73 357.381 298.853 357.491L298.145 358.2Z" fill="black"/>
<path d="M294.606 361.738C294.485 361.625 294.365 361.509 294.247 361.391C288.584 355.728 288.584 346.547 294.247 340.885C294.365 340.766 294.485 340.65 294.606 340.537L295.314 341.245C295.192 341.358 295.072 341.473 294.954 341.592C289.682 346.864 289.682 355.412 294.954 360.684C295.072 360.802 295.192 360.918 295.314 361.031L294.606 361.738Z" fill="black"/>
<path d="M291.069 365.275C290.949 365.161 290.83 365.044 290.711 364.926C283.096 357.311 283.096 344.964 290.711 337.349C290.83 337.231 290.949 337.115 291.069 337L291.777 337.707C291.656 337.822 291.537 337.938 291.419 338.056C284.194 345.281 284.194 356.994 291.419 364.219C291.537 364.337 291.656 364.454 291.777 364.568L291.069 365.275Z" fill="black"/>
<path d="M115 285.426L115 287.442L99.1192 281.61L99.1192 279.625L115 273.794L115 275.81L101.632 280.556L101.632 280.68L115 285.426ZM108.797 284.681L108.797 276.555L110.503 276.555L110.503 284.681L108.797 284.681ZM99.1192 260.899L99.1192 258.976L109.634 258.976C110.72 258.976 111.689 259.232 112.542 259.743C113.39 260.25 114.059 260.966 114.55 261.891C115.036 262.817 115.279 263.902 115.279 265.148C115.279 266.394 115.036 267.48 114.55 268.405C114.059 269.33 113.39 270.049 112.542 270.561C111.689 271.067 110.72 271.321 109.634 271.321L99.1192 271.321L99.1192 269.397L109.479 269.397C110.254 269.397 110.945 269.227 111.549 268.886C112.149 268.544 112.622 268.059 112.968 267.428C113.31 266.792 113.48 266.032 113.48 265.148C113.48 264.264 113.31 263.504 112.968 262.868C112.622 262.233 112.149 261.747 111.549 261.411C110.945 261.069 110.254 260.899 109.479 260.899L99.1192 260.899ZM115 250.235L115 255.135L99.1192 255.135L99.1192 250.018C99.1192 248.477 99.4371 247.159 100.073 246.063C100.704 244.967 101.611 244.127 102.795 243.543C103.973 242.959 105.385 242.667 107.029 242.667C108.683 242.667 110.107 242.961 111.301 243.55C112.49 244.14 113.405 244.998 114.046 246.125C114.682 247.252 115 248.622 115 250.235ZM113.294 253.212L113.294 250.359C113.294 249.046 113.041 247.958 112.534 247.094C112.028 246.231 111.306 245.587 110.371 245.163C109.435 244.739 108.321 244.528 107.029 244.528C105.747 244.528 104.643 244.737 103.718 245.156C102.787 245.574 102.074 246.2 101.577 247.032C101.076 247.864 100.825 248.901 100.825 250.142L100.825 253.212L113.294 253.212ZM99.1192 237.518L115 237.518L115 239.441L99.1192 239.441L99.1192 237.518ZM115 233.662L99.1192 233.662L99.1192 224.078L100.825 224.078L100.825 231.739L106.191 231.739L106.191 224.574L107.897 224.574L107.897 231.739L113.294 231.739L113.294 223.953L115 223.953L115 233.662ZM99.1192 208.018L115 208.018L115 209.879L102.531 218.533L102.531 218.688L115 218.688L115 220.611L99.1192 220.611L99.1192 218.75L111.619 210.066L111.619 209.91L99.1192 209.91L99.1192 208.018ZM104.082 191.391L104.082 193.314C103.529 193.428 103.043 193.627 102.624 193.911C102.205 194.191 101.854 194.532 101.57 194.935C101.28 195.333 101.063 195.775 100.918 196.261C100.773 196.747 100.701 197.254 100.701 197.781C100.701 198.742 100.944 199.613 101.43 200.394C101.916 201.169 102.632 201.787 103.578 202.247C104.524 202.702 105.685 202.93 107.06 202.93C108.435 202.93 109.595 202.702 110.541 202.247C111.487 201.787 112.203 201.169 112.689 200.394C113.175 199.613 113.418 198.742 113.418 197.781C113.418 197.254 113.346 196.747 113.201 196.261C113.056 195.775 112.842 195.333 112.557 194.935C112.268 194.532 111.914 194.191 111.495 193.911C111.071 193.627 110.585 193.428 110.037 193.314L110.037 191.391C110.849 191.536 111.575 191.8 112.216 192.182C112.857 192.565 113.403 193.04 113.852 193.609C114.297 194.178 114.636 194.816 114.868 195.524C115.101 196.227 115.217 196.98 115.217 197.781C115.217 199.135 114.886 200.34 114.225 201.394C113.563 202.449 112.622 203.279 111.402 203.883C110.182 204.488 108.735 204.791 107.06 204.791C105.385 204.791 103.937 204.488 102.717 203.883C101.497 203.279 100.556 202.449 99.8946 201.394C99.233 200.34 98.9021 199.135 98.9021 197.781C98.9021 196.98 99.0184 196.227 99.251 195.524C99.4837 194.816 99.8249 194.178 100.275 193.609C100.719 193.04 101.262 192.565 101.903 192.182C102.539 191.8 103.265 191.536 104.082 191.391ZM115 188.284L99.1192 188.284L99.1192 178.699L100.825 178.699L100.825 186.361L106.191 186.361L106.191 179.196L107.897 179.196L107.897 186.361L113.294 186.361L113.294 178.575L115 178.575L115 188.284Z" fill="black"/>
<path d="M564.911 208.924C565.696 208.831 566.306 208.453 566.741 207.792C567.175 207.13 567.392 206.318 567.392 205.357C567.392 204.654 567.278 204.039 567.051 203.511C566.823 202.989 566.511 202.581 566.112 202.286C565.714 201.997 565.262 201.852 564.755 201.852C564.332 201.852 563.967 201.953 563.662 202.154C563.362 202.361 563.112 202.625 562.91 202.945C562.714 203.266 562.551 203.602 562.421 203.953C562.297 204.305 562.197 204.628 562.119 204.923L561.685 206.536C561.576 206.949 561.426 207.409 561.235 207.916C561.044 208.428 560.783 208.916 560.452 209.381C560.126 209.852 559.707 210.24 559.196 210.545C558.684 210.85 558.056 211.002 557.311 211.002C556.453 211.002 555.678 210.777 554.985 210.327C554.292 209.883 553.742 209.232 553.333 208.373C552.925 207.52 552.721 206.484 552.721 205.264C552.721 204.127 552.904 203.142 553.271 202.31C553.638 201.482 554.15 200.831 554.807 200.355C555.463 199.885 556.226 199.619 557.094 199.557L557.094 201.542C556.495 201.594 555.998 201.795 555.605 202.147C555.218 202.503 554.928 202.953 554.737 203.496C554.551 204.044 554.458 204.633 554.458 205.264C554.458 205.998 554.577 206.657 554.815 207.241C555.057 207.825 555.393 208.288 555.823 208.629C556.257 208.97 556.763 209.141 557.342 209.141C557.87 209.141 558.299 208.994 558.63 208.699C558.96 208.404 559.229 208.017 559.436 207.536C559.643 207.055 559.824 206.536 559.979 205.977L560.537 204.023C560.894 202.783 561.403 201.8 562.065 201.077C562.726 200.353 563.592 199.991 564.662 199.991C565.552 199.991 566.327 200.231 566.989 200.712C567.656 201.198 568.173 201.849 568.54 202.666C568.912 203.488 569.098 204.406 569.098 205.419C569.098 206.443 568.914 207.352 568.547 208.148C568.185 208.945 567.689 209.575 567.059 210.041C566.428 210.511 565.712 210.759 564.911 210.785L564.911 208.924ZM567.175 213.295L568.881 213.295L568.881 225.206L567.175 225.206L567.175 220.212L553 220.212L553 218.289L567.175 218.289L567.175 213.295ZM553 226.97L553 224.954L568.881 230.785L568.881 232.77L553 238.602L553 236.585L566.368 231.84L566.368 231.716L553 226.97ZM559.203 227.714L559.203 235.841L557.497 235.841L557.497 227.714L559.203 227.714ZM563.918 251.185C564.44 251.014 564.908 250.789 565.322 250.51C565.74 250.236 566.097 249.908 566.392 249.525C566.686 249.148 566.911 248.719 567.066 248.238C567.221 247.757 567.299 247.23 567.299 246.656C567.299 245.715 567.056 244.86 566.57 244.09C566.084 243.319 565.368 242.707 564.422 242.252C563.476 241.797 562.315 241.569 560.94 241.569C559.565 241.569 558.405 241.799 557.459 242.26C556.513 242.72 555.797 243.343 555.311 244.128C554.825 244.914 554.582 245.798 554.582 246.78C554.582 247.69 554.776 248.491 555.163 249.184C555.556 249.882 556.109 250.425 556.823 250.813C557.541 251.205 558.387 251.402 559.359 251.402L559.234 251.991L559.234 247.215L560.94 247.215L560.94 253.263L559.234 253.263C557.927 253.263 556.789 252.984 555.823 252.425C554.856 251.872 554.106 251.107 553.574 250.13C553.047 249.158 552.783 248.042 552.783 246.78C552.783 245.374 553.114 244.139 553.775 243.074C554.437 242.014 555.378 241.187 556.598 240.592C557.818 240.003 559.265 239.708 560.94 239.708C562.197 239.708 563.326 239.876 564.329 240.212C565.337 240.554 566.195 241.034 566.903 241.655C567.612 242.275 568.154 243.009 568.532 243.857C568.909 244.705 569.098 245.638 569.098 246.656C569.098 247.494 568.971 248.274 568.718 248.998C568.47 249.727 568.116 250.376 567.656 250.944C567.201 251.518 566.655 251.996 566.019 252.379C565.389 252.761 564.688 253.025 563.918 253.17L563.918 251.185ZM553 256.557L568.881 256.557L568.881 266.141L567.175 266.141L567.175 258.48L561.809 258.48L561.809 265.645L560.103 265.645L560.103 258.48L554.706 258.48L554.706 266.265L553 266.265L553 256.557Z" fill="black"/>
<path d="M305.792 11.0281H304.388C304.305 10.6242 304.16 10.2694 303.952 9.96367C303.748 9.65793 303.499 9.40126 303.205 9.19366C302.914 8.98228 302.591 8.82375 302.237 8.71806C301.882 8.61238 301.512 8.55953 301.127 8.55953C300.425 8.55953 299.789 8.73694 299.219 9.09175C298.653 9.44656 298.202 9.96934 297.866 10.6601C297.534 11.3508 297.367 12.1982 297.367 13.2023C297.367 14.2063 297.534 15.0537 297.866 15.7444C298.202 16.4352 298.653 16.958 299.219 17.3128C299.789 17.6676 300.425 17.845 301.127 17.845C301.512 17.845 301.882 17.7921 302.237 17.6864C302.591 17.5808 302.914 17.4241 303.205 17.2165C303.499 17.0051 303.748 16.7466 303.952 16.4408C304.16 16.1313 304.305 15.7765 304.388 15.3764H305.792C305.687 15.969 305.494 16.4993 305.215 16.9674C304.935 17.4354 304.588 17.8337 304.173 18.162C303.758 18.4867 303.292 18.7339 302.775 18.9037C302.261 19.0736 301.712 19.1585 301.127 19.1585C300.138 19.1585 299.259 18.917 298.489 18.4338C297.719 17.9507 297.113 17.2637 296.671 16.3729C296.229 15.4821 296.009 14.4252 296.009 13.2023C296.009 11.9793 296.229 10.9224 296.671 10.0316C297.113 9.14082 297.719 8.45384 298.489 7.9707C299.259 7.48755 300.138 7.24598 301.127 7.24598C301.712 7.24598 302.261 7.33091 302.775 7.50076C303.292 7.67062 303.758 7.91974 304.173 8.24813C304.588 8.57274 304.935 8.96907 305.215 9.43712C305.494 9.90139 305.687 10.4317 305.792 11.0281ZM308.537 19H307.065L311.323 7.40451H312.772L317.03 19H315.558L312.093 9.23896H312.002L308.537 19ZM309.08 14.4705H315.014V15.7161H309.08V14.4705ZM316.847 8.65012V7.40451H325.544V8.65012H321.897V19H320.493V8.65012H316.847ZM335.909 19.1585C335.162 19.1585 334.496 19.0302 333.911 18.7735C333.329 18.5169 332.867 18.1602 332.523 17.7034C332.184 17.2429 331.999 16.7088 331.969 16.1011H333.395C333.425 16.4748 333.554 16.7975 333.78 17.0693C334.007 17.3373 334.303 17.5449 334.669 17.6921C335.035 17.8393 335.441 17.9129 335.887 17.9129C336.385 17.9129 336.826 17.8261 337.211 17.6525C337.596 17.4788 337.898 17.2373 338.117 16.9278C338.336 16.6182 338.446 16.2597 338.446 15.852C338.446 15.4255 338.34 15.0499 338.129 14.7253C337.917 14.3969 337.608 14.1402 337.2 13.9553C336.792 13.7703 336.294 13.6779 335.705 13.6779H334.777V12.4322H335.705C336.166 12.4322 336.57 12.3492 336.917 12.1831C337.268 12.017 337.542 11.783 337.738 11.4811C337.938 11.1791 338.038 10.8243 338.038 10.4166C338.038 10.0241 337.951 9.68247 337.778 9.39183C337.604 9.10118 337.359 8.87471 337.042 8.7124C336.728 8.5501 336.358 8.46894 335.932 8.46894C335.532 8.46894 335.154 8.54255 334.799 8.68976C334.448 8.83319 334.162 9.04268 333.939 9.31822C333.716 9.58999 333.595 9.91838 333.576 10.3034H332.218C332.24 9.69568 332.423 9.16346 332.767 8.70674C333.11 8.24624 333.559 7.88766 334.114 7.63099C334.673 7.37432 335.286 7.24598 335.954 7.24598C336.672 7.24598 337.287 7.3913 337.8 7.68194C338.314 7.96881 338.708 8.34816 338.984 8.81998C339.259 9.2918 339.397 9.80137 339.397 10.3487C339.397 11.0017 339.225 11.5584 338.882 12.0189C338.542 12.4794 338.08 12.7984 337.494 12.9758V13.0664C338.227 13.1872 338.799 13.4986 339.21 14.0006C339.621 14.4988 339.827 15.116 339.827 15.852C339.827 16.4824 339.655 17.0485 339.312 17.5506C338.972 18.0488 338.508 18.4414 337.919 18.7282C337.33 19.0151 336.66 19.1585 335.909 19.1585Z" fill="black"/>
<path d="M305.792 450.028H304.388C304.305 449.624 304.16 449.269 303.952 448.964C303.748 448.658 303.499 448.401 303.205 448.194C302.914 447.982 302.591 447.824 302.237 447.718C301.882 447.612 301.512 447.56 301.127 447.56C300.425 447.56 299.789 447.737 299.219 448.092C298.653 448.447 298.202 448.969 297.866 449.66C297.534 450.351 297.367 451.198 297.367 452.202C297.367 453.206 297.534 454.054 297.866 454.744C298.202 455.435 298.653 455.958 299.219 456.313C299.789 456.668 300.425 456.845 301.127 456.845C301.512 456.845 301.882 456.792 302.237 456.686C302.591 456.581 302.914 456.424 303.205 456.217C303.499 456.005 303.748 455.747 303.952 455.441C304.16 455.131 304.305 454.777 304.388 454.376H305.792C305.687 454.969 305.494 455.499 305.215 455.967C304.935 456.435 304.588 456.834 304.173 457.162C303.758 457.487 303.292 457.734 302.775 457.904C302.261 458.074 301.712 458.159 301.127 458.159C300.138 458.159 299.259 457.917 298.489 457.434C297.719 456.951 297.113 456.264 296.671 455.373C296.229 454.482 296.009 453.425 296.009 452.202C296.009 450.979 296.229 449.922 296.671 449.032C297.113 448.141 297.719 447.454 298.489 446.971C299.259 446.488 300.138 446.246 301.127 446.246C301.712 446.246 302.261 446.331 302.775 446.501C303.292 446.671 303.758 446.92 304.173 447.248C304.588 447.573 304.935 447.969 305.215 448.437C305.494 448.901 305.687 449.432 305.792 450.028ZM308.537 458H307.065L311.323 446.405H312.772L317.03 458H315.558L312.093 448.239H312.002L308.537 458ZM309.08 453.471H315.014V454.716H309.08V453.471ZM316.847 447.65V446.405H325.544V447.65H321.897V458H320.493V447.65H316.847ZM335.909 458.159C335.162 458.159 334.496 458.03 333.911 457.774C333.329 457.517 332.867 457.16 332.523 456.703C332.184 456.243 331.999 455.709 331.969 455.101H333.395C333.425 455.475 333.554 455.798 333.78 456.069C334.007 456.337 334.303 456.545 334.669 456.692C335.035 456.839 335.441 456.913 335.887 456.913C336.385 456.913 336.826 456.826 337.211 456.652C337.596 456.479 337.898 456.237 338.117 455.928C338.336 455.618 338.446 455.26 338.446 454.852C338.446 454.425 338.34 454.05 338.129 453.725C337.917 453.397 337.608 453.14 337.2 452.955C336.792 452.77 336.294 452.678 335.705 452.678H334.777V451.432H335.705C336.166 451.432 336.57 451.349 336.917 451.183C337.268 451.017 337.542 450.783 337.738 450.481C337.938 450.179 338.038 449.824 338.038 449.417C338.038 449.024 337.951 448.682 337.778 448.392C337.604 448.101 337.359 447.875 337.042 447.712C336.728 447.55 336.358 447.469 335.932 447.469C335.532 447.469 335.154 447.543 334.799 447.69C334.448 447.833 334.162 448.043 333.939 448.318C333.716 448.59 333.595 448.918 333.576 449.303H332.218C332.24 448.696 332.423 448.163 332.767 447.707C333.11 447.246 333.559 446.888 334.114 446.631C334.673 446.374 335.286 446.246 335.954 446.246C336.672 446.246 337.287 446.391 337.8 446.682C338.314 446.969 338.708 447.348 338.984 447.82C339.259 448.292 339.397 448.801 339.397 449.349C339.397 450.002 339.225 450.558 338.882 451.019C338.542 451.479 338.08 451.798 337.494 451.976V452.066C338.227 452.187 338.799 452.499 339.21 453.001C339.621 453.499 339.827 454.116 339.827 454.852C339.827 455.482 339.655 456.049 339.312 456.551C338.972 457.049 338.508 457.441 337.919 457.728C337.33 458.015 336.66 458.159 335.909 458.159Z" fill="black"/>
<line x1="357" y1="45.5" x2="394" y2="45.5" stroke="black"/>
<line x1="357" y1="418.5" x2="394" y2="418.5" stroke="black"/>
</g>
<defs>
<clipPath id="clip0_36_2">
<rect width="667" height="465" fill="white"/>
</clipPath>
</defs>
</svg>
